<?xml version="1.0" encoding="utf-8"?>
<!-- Generator: Adobe Illustrator 15.0.2, SVG Export Plug-In . SVG Version: 6.00 Build 0)  -->
<!DOCTYPE svg PUBLIC "-//W3C//DTD SVG 1.1//EN" "http://www.w3.org/Graphics/SVG/1.1/DTD/svg11.dtd">
<svg version="1.1" id="Layer_1" xmlns="http://www.w3.org/2000/svg" xmlns:xlink="http://www.w3.org/1999/xlink" x="0px" y="0px"
	 width="115.129px" height="31.703px" viewBox="0 0 115.129 31.703" enable-background="new 0 0 115.129 31.703"
	 xml:space="preserve">
<g>
	<path fill="#8A2529" d="M102.71,13.053c0-4.473,2.297-6.396,6.21-6.396c3.908,0,6.209,1.923,6.209,6.396v4.717
		c0,4.47-2.301,6.392-6.209,6.392c-3.913,0-6.21-1.922-6.21-6.392V13.053 M106.529,18.898c0,1.357,0.97,2.065,2.392,2.065
		c1.42,0,2.388-0.708,2.388-2.065v-6.974c0-1.36-0.968-2.071-2.388-2.071c-1.422,0-2.392,0.71-2.392,2.071V18.898z M47.567,5.978
		h-1.696v3.415h1.696c1.368,0,2.297,0.684,2.297,1.984v0.775c-0.687-0.188-1.45-0.283-2.297-0.283c-3.909,0-6.208,1.926-6.208,6.396
		c0,4.468,2.299,6.395,6.208,6.395c3.909,0,6.208-1.927,6.208-6.395v-5.895C53.775,7.901,51.476,5.978,47.567,5.978 M49.959,19.385
		c0,1.359-0.972,2.069-2.393,2.069c-1.42,0-2.389-0.71-2.389-2.069v-2.239c0-1.358,0.969-2.067,2.389-2.067
		c1.42,0,2.393,0.708,2.393,2.067v0.928V19.385z M85.521,16.341v-3.942c0-3.445-2.576-5.742-6.207-5.742
		c-3.727,0-6.208,2.297-6.208,5.992v5.522c0,3.693,2.482,5.991,6.208,5.991h1.697v-3.168h-1.697c-1.303,0-2.297-0.74-2.297-2.418
		v-2.234H85.521 M76.876,12.286c0-1.582,0.756-2.568,2.438-2.568c1.678,0,2.434,0.986,2.434,2.568v0.99h-4.871V12.286z
		 M66.553,6.657c-3.911,0-6.208,1.923-6.208,6.391v10.844h3.913V12.056c0-1.302,0.93-1.988,2.295-1.988h1.698V6.657H66.553
		 M94.462,18.849v-8.781h1.966V6.657h-1.967V0.964h-3.91v6.675v0.07v10.146c0,4.47,2.298,6.394,6.208,6.394v-3.415
		C95.392,20.835,94.462,20.153,94.462,18.849 M30.038,6.66c-0.898,0-1.6,0-2.297,0c-0.455,0-0.909,0-1.415,0h-2.582v25.043h3.997
		v-7.95c0.698,0.22,1.466,0.354,2.297,0.413c3.909,0,6.208-1.923,6.208-6.391v-4.719C36.246,8.583,33.947,6.66,30.038,6.66
		 M32.425,18.902c0,1.355-0.966,2.065-2.387,2.065c-1.424,0-2.391-0.71-2.391-2.065v-6.976V9.868c0.483,0,1.791-0.01,2.391-0.01
		c1.42,0,2.387,0.71,2.387,2.068V18.902z"/>
	<rect y="6.66" fill="#FFD200" width="11.871" height="17.231"/>
</g>
</svg>
