<?xml version="1.0" encoding="utf-8"?>
<!-- Generator: Adobe Illustrator 15.0.2, SVG Export Plug-In . SVG Version: 6.00 Build 0)  -->
<!DOCTYPE svg PUBLIC "-//W3C//DTD SVG 1.1//EN" "http://www.w3.org/Graphics/SVG/1.1/DTD/svg11.dtd">
<svg version="1.1" id="Layer_1" xmlns="http://www.w3.org/2000/svg" xmlns:xlink="http://www.w3.org/1999/xlink" x="0px" y="0px"
	 width="309.525px" height="122.007px" viewBox="0 0 309.525 122.007" enable-background="new 0 0 309.525 122.007"
	 xml:space="preserve">
<g>
	<path fill="#FFFFFF" d="M253.646,50.91c0.009-11.046,5.685-15.79,15.348-15.782c9.651,0.008,15.329,4.762,15.32,15.808
		l-0.01,11.649c-0.009,11.038-5.695,15.78-15.346,15.772c-9.663-0.008-15.331-4.76-15.322-15.798L253.646,50.91 M263.063,65.353
		c-0.003,3.351,2.39,5.103,5.901,5.105c3.506,0.003,5.898-1.745,5.901-5.096l0.015-17.222c0.002-3.359-2.386-5.116-5.893-5.119
		c-3.511-0.003-5.907,1.75-5.91,5.109L263.063,65.353z M117.486,33.326l-4.188-0.003l-0.007,8.433l4.188,0.003
		c3.377,0.003,5.672,1.694,5.669,4.905l-0.001,1.915c-1.697-0.466-3.581-0.703-5.673-0.705c-9.652-0.008-15.334,4.744-15.344,15.782
		c-0.009,11.033,5.665,15.795,15.317,15.804c9.654,0.008,15.334-4.746,15.344-15.778l0.012-14.558
		C132.812,38.087,127.14,33.333,117.486,33.326 M123.366,66.439c-0.003,3.356-2.405,5.107-5.913,5.104
		c-3.506-0.003-5.897-1.758-5.895-5.114l0.005-5.53c0.002-3.354,2.396-5.102,5.903-5.099c3.508,0.003,5.907,1.754,5.904,5.109
		l-0.002,2.292L123.366,66.439z M211.19,58.994l0.008-9.734c0.007-8.508-6.35-14.186-15.316-14.193
		c-9.203-0.008-15.336,5.659-15.344,14.783l-0.011,13.638c-0.007,9.119,6.117,14.8,15.319,14.808l4.191,0.003l0.006-7.824
		l-4.191-0.003c-3.217-0.003-5.67-1.833-5.667-5.978l0.005-5.518L211.19,58.994 M189.852,48.963
		c0.003-3.906,1.872-6.339,6.024-6.336c4.143,0.003,6.008,2.44,6.004,6.346l-0.002,2.444l-12.029-0.01L189.852,48.963z
		 M164.37,35.041c-9.657-0.008-15.334,4.736-15.343,15.769l-0.022,26.779l9.662,0.008l0.024-29.227
		c0.002-3.216,2.3-4.907,5.672-4.904l4.193,0.003l0.007-8.425L164.37,35.041 M233.266,65.207l0.018-21.684l4.854,0.004l0.007-8.425
		l-4.857-0.004L233.3,21.04l-9.656-0.008l-0.014,16.484l0,0.174l-0.021,25.056c-0.009,11.038,5.662,15.794,15.317,15.802
		l0.007-8.432C235.557,70.113,233.263,68.427,233.266,65.207 M74.198,34.974c-2.217-0.002-3.95-0.003-5.673-0.005
		c-1.124-0.001-2.244-0.001-3.493-0.003l-6.376-0.005l-0.052,61.842l9.869,0.008l0.017-19.633c1.723,0.544,3.619,0.879,5.672,1.025
		c9.653,0.008,15.334-4.736,15.344-15.769l0.01-11.654C89.524,39.735,83.851,34.982,74.198,34.974 M80.066,65.209
		c-0.003,3.346-2.391,5.099-5.898,5.096c-3.516-0.003-5.902-1.759-5.899-5.105l0.015-17.227l0.004-5.082
		c1.193,0.001,4.423-0.021,5.903-0.021c3.508,0.003,5.893,1.758,5.89,5.112L80.066,65.209z"/>
	
		<rect x="0.002" y="34.925" transform="matrix(-1 -8.327086e-04 8.327086e-04 -1 29.2725 112.4136)" fill="#FFD200" width="29.315" height="42.552"/>
</g>
</svg>
