<?xml version="1.0" encoding="utf-8"?>
<!-- Generator: Adobe Illustrator 15.0.2, SVG Export Plug-In . SVG Version: 6.00 Build 0)  -->
<!DOCTYPE svg PUBLIC "-//W3C//DTD SVG 1.1//EN" "http://www.w3.org/Graphics/SVG/1.1/DTD/svg11.dtd">
<svg version="1.1" id="Layer_1" xmlns="http://www.w3.org/2000/svg" xmlns:xlink="http://www.w3.org/1999/xlink" x="0px" y="0px"
	 width="375.482px" height="137.61px" viewBox="0 0 375.482 137.61" enable-background="new 0 0 375.482 137.61"
	 xml:space="preserve">
<path fill="#8A2529" d="M253.708,50.702c0-11.048,5.673-15.798,15.338-15.798c9.653,0,15.335,4.75,15.335,15.798v11.651
	c0,11.04-5.683,15.79-15.335,15.79c-9.666,0-15.338-4.75-15.338-15.79V50.702 M263.139,65.14c0,3.352,2.395,5.102,5.907,5.102
	c3.507,0,5.897-1.75,5.897-5.102V47.915c0-3.36-2.39-5.115-5.897-5.115c-3.512,0-5.907,1.754-5.907,5.115V65.14z M117.507,33.228
	h-4.189v8.435h4.189c3.378,0,5.674,1.69,5.674,4.901v1.915c-1.697-0.464-3.582-0.699-5.674-0.699
	c-9.654,0-15.333,4.758-15.333,15.798c0,11.035,5.679,15.793,15.333,15.793c9.655,0,15.333-4.758,15.333-15.793V49.017
	C132.84,37.978,127.162,33.228,117.507,33.228 M123.417,66.343c0,3.356-2.401,5.11-5.909,5.11c-3.507,0-5.9-1.753-5.9-5.11v-5.531
	c0-3.355,2.393-5.105,5.9-5.105c3.508,0,5.909,1.75,5.909,5.105v2.292V66.343z M211.251,58.823v-9.736
	c0-8.51-6.363-14.183-15.332-14.183c-9.204,0-15.334,5.673-15.334,14.799v13.64c0,9.121,6.13,14.799,15.334,14.799h4.192v-7.827
	h-4.192c-3.217,0-5.673-1.829-5.673-5.973v-5.519H211.251 M189.9,48.809c0-3.906,1.867-6.343,6.02-6.343
	c4.145,0,6.011,2.437,6.011,6.343v2.444H189.9V48.809z M164.402,34.904c-9.659,0-15.333,4.75-15.333,15.784v26.785h9.664V48.24
	c0-3.216,2.296-4.91,5.669-4.91h4.193v-8.426H164.402 M233.336,65.019V43.331h4.855v-8.426h-4.858V20.843h-9.658v16.487v0.174
	v25.061c0,11.04,5.676,15.794,15.334,15.794v-8.436C235.632,69.924,233.336,68.24,233.336,65.019 M74.212,34.913
	c-2.217,0-3.951,0-5.674,0c-1.124,0-2.244,0-3.494,0h-6.377v61.854h9.871V77.131c1.724,0.543,3.621,0.876,5.674,1.02
	c9.656,0,15.333-4.749,15.333-15.784V50.71C89.545,39.662,83.868,34.913,74.212,34.913 M80.107,65.149
	c0,3.347-2.387,5.102-5.895,5.102c-3.517,0-5.904-1.755-5.904-5.102v-17.23v-5.083c1.193,0,4.423-0.025,5.904-0.025
	c3.508,0,5.895,1.753,5.895,5.108V65.149z"/>
<rect x="0.02" y="34.913" fill="#FFD200" width="29.321" height="42.561"/>
<path fill="#FFD200" d="M132.835,107.817l1.923,13.847h0.041l7.729-13.847h1.562l-8.699,15.073h-1.669l-2.365-15.073H132.835
	 M150.132,111.958c-0.528-0.193-1.108-0.287-1.742-0.287c-0.971,0-1.833,0.198-2.584,0.593c-0.753,0.393-1.39,0.914-1.91,1.565
	c-0.521,0.646-0.917,1.396-1.183,2.243c-0.267,0.847-0.4,1.712-0.4,2.6c0,1.385,0.373,2.484,1.119,3.302
	c0.744,0.818,1.821,1.228,3.229,1.228c1.013,0,1.896-0.208,2.649-0.612c0.751-0.411,1.379-0.956,1.878-1.631
	c0.498-0.678,0.877-1.452,1.129-2.328c0.253-0.875,0.38-1.771,0.38-2.687c0-0.678-0.105-1.281-0.317-1.807
	c-0.211-0.531-0.506-0.979-0.886-1.346C151.113,112.426,150.66,112.149,150.132,111.958 M146.912,122.089
	c-1.114,0-1.939-0.328-2.476-0.982c-0.536-0.656-0.804-1.512-0.804-2.568c0-0.637,0.098-1.295,0.296-1.978
	c0.198-0.685,0.486-1.305,0.869-1.862c0.38-0.557,0.853-1.018,1.417-1.377c0.564-0.359,1.213-0.539,1.947-0.539
	c1.071,0,1.875,0.316,2.411,0.951c0.536,0.637,0.804,1.462,0.804,2.477c0,0.635-0.095,1.295-0.286,1.988
	c-0.191,0.692-0.473,1.327-0.847,1.903c-0.374,0.579-0.839,1.056-1.396,1.428C148.292,121.903,147.646,122.089,146.912,122.089z
	 M162.506,111.958c-0.528-0.193-1.109-0.287-1.742-0.287c-0.971,0-1.833,0.198-2.585,0.593c-0.754,0.393-1.39,0.914-1.911,1.565
	c-0.521,0.646-0.915,1.396-1.181,2.243c-0.268,0.847-0.401,1.712-0.401,2.6c0,1.385,0.373,2.484,1.118,3.302
	c0.747,0.818,1.824,1.228,3.23,1.228c1.013,0,1.896-0.208,2.648-0.612c0.752-0.411,1.378-0.956,1.879-1.631
	c0.499-0.678,0.875-1.452,1.128-2.328c0.254-0.875,0.38-1.771,0.38-2.687c0-0.678-0.106-1.281-0.317-1.807
	c-0.21-0.531-0.505-0.979-0.885-1.346C163.488,112.426,163.033,112.149,162.506,111.958 M159.286,122.089
	c-1.116,0-1.939-0.328-2.476-0.982c-0.537-0.656-0.805-1.512-0.805-2.568c0-0.637,0.099-1.295,0.297-1.978
	c0.198-0.685,0.487-1.305,0.867-1.862c0.382-0.557,0.853-1.018,1.417-1.377c0.564-0.359,1.213-0.539,1.948-0.539
	c1.072,0,1.875,0.316,2.412,0.951c0.537,0.637,0.804,1.462,0.804,2.477c0,0.635-0.095,1.295-0.287,1.988
	c-0.189,0.692-0.471,1.327-0.846,1.903c-0.373,0.579-0.838,1.056-1.396,1.428C160.665,121.903,160.02,122.089,159.286,122.089z
	 M170.063,111.982h-1.205l-2.323,10.907h1.31l1.224-5.709c0.113-0.504,0.28-0.999,0.497-1.479c0.22-0.478,0.497-0.905,0.835-1.278
	c0.338-0.372,0.734-0.673,1.193-0.897c0.457-0.227,0.98-0.347,1.574-0.362c0.125,0,0.25,0.007,0.38,0.02
	c0.125,0.012,0.252,0.015,0.379,0.015l0.295-1.332c-0.056-0.015-0.112-0.021-0.167-0.021c-0.057,0-0.121,0-0.191,0h-0.36
	c-0.971,0-1.767,0.246-2.385,0.733c-0.618,0.49-1.14,1.131-1.563,1.917h-0.042L170.063,111.982 M175.616,120.676
	c-0.176-0.353-0.264-0.796-0.264-1.33h-1.319c-0.028,0.688,0.07,1.276,0.296,1.763c0.225,0.487,0.527,0.883,0.907,1.196
	c0.381,0.311,0.82,0.541,1.322,0.683c0.499,0.143,1.018,0.215,1.553,0.215c0.521,0,1.042-0.058,1.563-0.171s0.994-0.299,1.416-0.56
	c0.423-0.263,0.765-0.603,1.025-1.03c0.259-0.422,0.392-0.946,0.392-1.568c0-0.506-0.118-0.931-0.349-1.269
	c-0.231-0.338-0.52-0.627-0.863-0.869c-0.344-0.241-0.724-0.438-1.137-0.603c-0.416-0.164-0.811-0.321-1.191-0.478
	c-0.309-0.125-0.6-0.253-0.874-0.381c-0.274-0.125-0.515-0.268-0.726-0.422c-0.21-0.157-0.38-0.331-0.505-0.528
	c-0.126-0.198-0.189-0.425-0.189-0.68c0-0.381,0.087-0.69,0.263-0.931c0.175-0.239,0.393-0.425,0.652-0.56
	c0.259-0.135,0.548-0.231,0.862-0.287c0.317-0.056,0.622-0.085,0.918-0.085c0.364,0,0.708,0.044,1.032,0.136
	c0.322,0.094,0.598,0.236,0.831,0.434c0.233,0.198,0.41,0.443,0.537,0.738c0.128,0.299,0.176,0.656,0.149,1.078h1.319
	c0.015-0.632-0.075-1.17-0.263-1.614c-0.193-0.443-0.458-0.805-0.803-1.085c-0.346-0.282-0.756-0.483-1.236-0.608
	c-0.478-0.128-1.006-0.19-1.584-0.19c-0.435,0-0.892,0.055-1.373,0.171c-0.477,0.111-0.915,0.287-1.308,0.526
	c-0.394,0.242-0.719,0.545-0.972,0.921c-0.252,0.372-0.38,0.825-0.38,1.36c0,0.454,0.085,0.837,0.255,1.153
	c0.168,0.318,0.392,0.591,0.667,0.825c0.276,0.231,0.591,0.429,0.943,0.591c0.354,0.162,0.707,0.313,1.061,0.456
	c0.352,0.14,0.707,0.28,1.06,0.41c0.352,0.135,0.667,0.29,0.942,0.465c0.276,0.176,0.501,0.384,0.679,0.623
	c0.176,0.241,0.264,0.543,0.264,0.909c0,0.354-0.088,0.656-0.264,0.912c-0.176,0.251-0.399,0.458-0.666,0.623
	c-0.268,0.161-0.564,0.28-0.888,0.357c-0.324,0.077-0.634,0.116-0.93,0.116c-0.381,0-0.758-0.039-1.132-0.125
	c-0.374-0.082-0.705-0.231-0.994-0.441C176.024,121.308,175.792,121.028,175.616,120.676 M188.24,111.987h-1.201l-3.189,14.931h1.31
	l1.329-6.185h0.044c0.069,0.434,0.209,0.811,0.422,1.126c0.21,0.316,0.47,0.571,0.781,0.77c0.309,0.198,0.661,0.342,1.054,0.434
	c0.396,0.092,0.806,0.14,1.226,0.14c0.917,0,1.739-0.215,2.47-0.637c0.733-0.422,1.361-0.97,1.881-1.64
	c0.521-0.668,0.917-1.423,1.191-2.262c0.275-0.84,0.413-1.684,0.413-2.53c0-0.661-0.084-1.267-0.253-1.819
	c-0.169-0.547-0.425-1.018-0.772-1.406c-0.343-0.386-0.772-0.69-1.288-0.909c-0.514-0.22-1.122-0.328-1.826-0.328
	c-0.958,0-1.744,0.202-2.354,0.605c-0.612,0.4-1.151,0.96-1.616,1.679h-0.041L188.24,111.987 M191.713,112.783
	c1.003,0,1.742,0.309,2.219,0.932c0.478,0.622,0.719,1.394,0.719,2.325c0,0.663-0.099,1.351-0.297,2.065
	c-0.198,0.708-0.49,1.365-0.876,1.954c-0.388,0.595-0.873,1.08-1.457,1.461c-0.583,0.381-1.257,0.569-2.017,0.569
	c-0.972,0-1.722-0.28-2.25-0.844s-0.792-1.334-0.792-2.306c0-0.677,0.106-1.379,0.316-2.106c0.212-0.726,0.516-1.389,0.919-1.989
	c0.4-0.598,0.899-1.091,1.488-1.479C190.281,112.979,190.956,112.783,191.713,112.783z M200.889,111.982h-1.201l-2.323,10.907h1.31
	l1.226-5.709c0.11-0.504,0.274-0.999,0.497-1.479c0.217-0.478,0.492-0.905,0.832-1.278c0.335-0.372,0.736-0.673,1.192-0.897
	c0.458-0.227,0.981-0.347,1.575-0.362c0.125,0,0.25,0.007,0.379,0.02c0.127,0.012,0.253,0.015,0.383,0.015l0.294-1.332
	c-0.058-0.015-0.113-0.021-0.168-0.021c-0.058,0-0.12,0-0.193,0h-0.356c-0.97,0-1.768,0.246-2.386,0.733
	c-0.62,0.49-1.141,1.131-1.562,1.917h-0.043L200.889,111.982 M212.614,111.958c-0.529-0.193-1.11-0.287-1.739-0.287
	c-0.975,0-1.836,0.198-2.591,0.593c-0.752,0.393-1.389,0.914-1.911,1.565c-0.521,0.646-0.912,1.396-1.179,2.243
	s-0.403,1.712-0.403,2.6c0,1.385,0.376,2.484,1.12,3.302c0.748,0.818,1.823,1.228,3.229,1.228c1.016,0,1.898-0.208,2.648-0.612
	c0.753-0.411,1.382-0.956,1.879-1.631c0.501-0.678,0.875-1.452,1.128-2.328c0.251-0.875,0.381-1.771,0.381-2.687
	c0-0.678-0.106-1.281-0.319-1.807c-0.209-0.531-0.506-0.979-0.885-1.346C213.596,112.426,213.14,112.149,212.614,111.958
	 M209.394,122.089c-1.117,0-1.942-0.328-2.475-0.982c-0.54-0.656-0.806-1.512-0.806-2.568c0-0.637,0.097-1.295,0.297-1.978
	c0.195-0.685,0.485-1.305,0.866-1.862c0.381-0.557,0.854-1.018,1.418-1.377c0.564-0.359,1.213-0.539,1.947-0.539
	c1.073,0,1.878,0.316,2.41,0.951c0.54,0.637,0.806,1.462,0.806,2.477c0,0.635-0.094,1.295-0.285,1.988
	c-0.188,0.692-0.473,1.327-0.847,1.903c-0.374,0.579-0.841,1.056-1.396,1.428C210.771,121.903,210.127,122.089,209.394,122.089z
	 M220.2,111.987h-1.225l-2.32,10.903h1.307l1.204-5.604c0.143-0.689,0.35-1.314,0.634-1.869c0.28-0.56,0.612-1.03,0.991-1.418
	c0.379-0.386,0.798-0.685,1.248-0.899c0.448-0.209,0.917-0.316,1.394-0.316c0.297,0,0.581,0.034,0.854,0.107
	c0.275,0.067,0.519,0.183,0.729,0.337c0.212,0.155,0.381,0.357,0.507,0.604c0.127,0.246,0.193,0.552,0.193,0.919
	c0,0.181-0.015,0.369-0.044,0.562c-0.028,0.188-0.062,0.367-0.106,0.536l-1.52,7.043h1.329l1.491-6.995
	c0.113-0.562,0.167-0.992,0.167-1.289c0-0.521-0.08-0.967-0.239-1.341c-0.162-0.372-0.389-0.675-0.683-0.907
	c-0.294-0.231-0.642-0.405-1.042-0.516c-0.401-0.116-0.839-0.171-1.32-0.171c-0.815,0-1.565,0.222-2.25,0.667
	c-0.68,0.442-1.225,0.987-1.636,1.636h-0.043L220.2,111.987 M237.369,124.207c0.28-0.689,0.519-1.51,0.716-2.451l2.072-9.769h-1.228
	l-0.465,2.241h-0.041c-0.07-0.422-0.217-0.794-0.444-1.119c-0.225-0.326-0.499-0.591-0.834-0.803
	c-0.331-0.212-0.692-0.369-1.088-0.476c-0.396-0.108-0.796-0.159-1.201-0.159c-0.874,0-1.654,0.19-2.344,0.569
	c-0.69,0.381-1.274,0.88-1.754,1.498c-0.479,0.62-0.847,1.322-1.097,2.101c-0.251,0.782-0.379,1.576-0.379,2.376
	c0,0.632,0.084,1.216,0.256,1.751c0.171,0.536,0.427,1.003,0.765,1.404c0.337,0.4,0.759,0.714,1.266,0.936
	c0.507,0.227,1.085,0.34,1.734,0.34c0.731,0,1.44-0.171,2.133-0.516c0.69-0.345,1.215-0.842,1.582-1.488l0.041,0.039
	c-0.084,0.313-0.168,0.659-0.253,1.047c-0.084,0.386-0.188,0.782-0.318,1.175c-0.123,0.398-0.285,0.789-0.473,1.184
	c-0.191,0.386-0.429,0.733-0.719,1.033c-0.29,0.296-0.637,0.538-1.047,0.724c-0.405,0.183-0.89,0.277-1.455,0.277
	c-0.396,0-0.774-0.041-1.141-0.118c-0.367-0.077-0.69-0.207-0.97-0.391s-0.512-0.429-0.69-0.738c-0.174-0.309-0.26-0.695-0.26-1.161
	h-1.322c0.014,0.646,0.14,1.194,0.372,1.647c0.231,0.449,0.535,0.811,0.919,1.085c0.378,0.27,0.822,0.47,1.319,0.596
	c0.502,0.127,1.032,0.19,1.595,0.19c0.847,0,1.568-0.111,2.168-0.329c0.593-0.221,1.104-0.55,1.529-0.994
	C236.732,125.466,237.087,124.896,237.369,124.207 M230.601,118.109c0-0.618,0.094-1.24,0.285-1.872
	c0.188-0.625,0.473-1.196,0.844-1.708c0.374-0.519,0.827-0.936,1.36-1.259c0.536-0.324,1.141-0.488,1.816-0.488
	c0.538,0,0.994,0.085,1.372,0.254c0.381,0.171,0.69,0.403,0.929,0.697c0.239,0.297,0.413,0.649,0.519,1.057
	c0.106,0.41,0.159,0.854,0.159,1.332c0,0.607-0.101,1.23-0.299,1.872s-0.483,1.228-0.864,1.756c-0.381,0.526-0.839,0.96-1.37,1.288
	c-0.536,0.333-1.141,0.497-1.819,0.497c-0.506,0-0.943-0.092-1.31-0.273c-0.364-0.186-0.668-0.434-0.919-0.75
	c-0.244-0.319-0.424-0.683-0.535-1.091C230.654,119.011,230.601,118.577,230.601,118.109z M255.838,111.958
	c-0.528-0.193-1.107-0.287-1.739-0.287c-0.97,0-1.833,0.198-2.586,0.593c-0.752,0.393-1.389,0.914-1.91,1.565
	c-0.521,0.646-0.917,1.396-1.184,2.243s-0.4,1.712-0.4,2.6c0,1.385,0.374,2.484,1.121,3.302c0.743,0.818,1.819,1.228,3.228,1.228
	c1.013,0,1.896-0.208,2.648-0.612c0.752-0.411,1.38-0.956,1.879-1.631c0.5-0.678,0.876-1.452,1.132-2.328
	c0.25-0.875,0.376-1.771,0.376-2.687c0-0.678-0.104-1.281-0.316-1.807c-0.212-0.531-0.504-0.979-0.885-1.346
	C256.819,112.426,256.366,112.149,255.838,111.958 M252.62,122.089c-1.117,0-1.942-0.328-2.477-0.982
	c-0.536-0.656-0.806-1.512-0.806-2.568c0-0.637,0.099-1.295,0.296-1.978c0.198-0.685,0.488-1.305,0.871-1.862
	c0.378-0.557,0.854-1.018,1.418-1.377c0.565-0.359,1.211-0.539,1.944-0.539c1.071,0,1.876,0.316,2.412,0.951
	c0.535,0.637,0.803,1.462,0.803,2.477c0,0.635-0.094,1.295-0.284,1.988c-0.191,0.692-0.473,1.327-0.847,1.903
	c-0.376,0.579-0.839,1.056-1.394,1.428C253.998,121.903,253.353,122.089,252.62,122.089z M263.501,111.987h-1.204l-3.191,14.931
	h1.312l1.327-6.185h0.045c0.07,0.434,0.21,0.811,0.42,1.126s0.47,0.571,0.784,0.77c0.309,0.198,0.661,0.342,1.056,0.434
	c0.391,0.092,0.8,0.14,1.223,0.14c0.915,0,1.739-0.215,2.473-0.637c0.73-0.422,1.355-0.97,1.876-1.64
	c0.523-0.668,0.922-1.423,1.194-2.262c0.278-0.84,0.413-1.684,0.413-2.53c0-0.661-0.086-1.267-0.256-1.819
	c-0.168-0.547-0.424-1.018-0.769-1.406c-0.345-0.386-0.774-0.69-1.286-0.909c-0.516-0.22-1.126-0.328-1.828-0.328
	c-0.955,0-1.741,0.202-2.354,0.605c-0.613,0.4-1.148,0.96-1.614,1.679h-0.045L263.501,111.987 M266.974,112.783
	c0.999,0,1.737,0.309,2.214,0.932c0.483,0.622,0.719,1.394,0.719,2.325c0,0.663-0.096,1.351-0.294,2.065
	c-0.198,0.708-0.49,1.365-0.878,1.954c-0.386,0.595-0.873,1.08-1.454,1.461c-0.586,0.381-1.257,0.569-2.014,0.569
	c-0.975,0-1.725-0.28-2.253-0.844c-0.526-0.564-0.791-1.334-0.791-2.306c0-0.677,0.104-1.379,0.318-2.106
	c0.209-0.726,0.516-1.389,0.916-1.989c0.403-0.598,0.897-1.091,1.491-1.479C265.537,112.979,266.212,112.783,266.974,112.783z
	 M283.695,107.817h-1.327l-3.232,15.073h1.307l1.207-5.604c0.14-0.689,0.352-1.314,0.632-1.869c0.28-0.56,0.612-1.03,0.994-1.418
	c0.379-0.386,0.791-0.685,1.244-0.899c0.449-0.209,0.917-0.316,1.394-0.316c0.295,0,0.579,0.034,0.854,0.107
	c0.275,0.067,0.517,0.183,0.729,0.337c0.212,0.155,0.378,0.357,0.506,0.604s0.188,0.552,0.188,0.919
	c0,0.181-0.012,0.369-0.041,0.562c-0.026,0.188-0.06,0.367-0.104,0.536l-1.52,7.043h1.332l1.488-6.995
	c0.11-0.562,0.166-0.992,0.166-1.289c0-0.521-0.077-0.967-0.241-1.341c-0.16-0.372-0.389-0.675-0.681-0.907
	c-0.294-0.231-0.642-0.405-1.042-0.516c-0.4-0.116-0.842-0.171-1.319-0.171c-0.815,0-1.563,0.222-2.241,0.667
	c-0.673,0.444-1.201,0.989-1.583,1.641h-0.039L283.695,107.817 M292.942,118.632c0-0.311,0.021-0.591,0.067-0.849h8.546
	c0.041-0.323,0.07-0.639,0.084-0.948c0.014-0.309,0.02-0.618,0.02-0.926c0-0.634-0.092-1.211-0.273-1.727
	c-0.186-0.521-0.456-0.97-0.818-1.341c-0.356-0.371-0.791-0.661-1.297-0.863s-1.09-0.306-1.756-0.306
	c-0.929,0-1.761,0.198-2.489,0.593c-0.733,0.393-1.356,0.914-1.862,1.565c-0.504,0.646-0.893,1.384-1.15,2.209
	c-0.26,0.825-0.393,1.674-0.393,2.549c0,1.44,0.379,2.569,1.134,3.386c0.755,0.818,1.857,1.228,3.309,1.228
	c1.312,0,2.374-0.328,3.193-0.979c0.815-0.651,1.409-1.596,1.775-2.836h-1.336c-0.256,0.804-0.69,1.455-1.312,1.954
	c-0.623,0.499-1.375,0.748-2.265,0.748c-0.538,0-1.006-0.087-1.406-0.263c-0.405-0.179-0.738-0.418-0.998-0.722
	c-0.261-0.304-0.454-0.668-0.582-1.095C293.005,119.587,292.942,119.127,292.942,118.632 M300.304,116.671h-7.115
	c0.113-0.506,0.29-0.994,0.526-1.457c0.243-0.465,0.54-0.878,0.902-1.24c0.357-0.357,0.765-0.646,1.22-0.863
	c0.458-0.22,0.965-0.329,1.51-0.329c0.931,0,1.662,0.275,2.192,0.825c0.536,0.55,0.798,1.288,0.798,2.219
	c0,0.143-0.002,0.28-0.015,0.41C300.311,116.372,300.304,116.517,300.304,116.671z M305.774,111.982h-1.966l-0.253,1.114h1.966
	l-1.5,7.231c-0.055,0.241-0.094,0.458-0.116,0.656c-0.021,0.198-0.031,0.352-0.031,0.465c0,0.324,0.055,0.589,0.169,0.794
	c0.113,0.203,0.265,0.362,0.456,0.478c0.188,0.111,0.403,0.183,0.642,0.222c0.239,0.034,0.487,0.05,0.74,0.05
	c0.224,0,0.449-0.007,0.676-0.017c0.227-0.015,0.448-0.032,0.675-0.053l0.232-1.158c-0.521,0.086-1.042,0.13-1.563,0.13
	c-0.25,0-0.434-0.08-0.535-0.236c-0.106-0.154-0.162-0.328-0.162-0.526c0-0.169,0.012-0.323,0.034-0.454
	c0.022-0.135,0.061-0.331,0.118-0.584l1.496-7h2.219l0.209-1.114h-2.173l0.694-3.297h-1.329L305.774,111.982 M318.317,111.982
	h-1.395l1.269,10.907h1.455l4.479-9.151h0.043l0.779,9.151h1.435l5.724-10.907h-1.416l-4.626,9.214h-0.041l-0.738-9.214h-1.562
	l-4.497,9.301h-0.045L318.317,111.982 M334.2,118.632c0-0.311,0.024-0.591,0.07-0.849h8.543c0.043-0.323,0.067-0.639,0.084-0.948
	c0.012-0.309,0.02-0.618,0.02-0.926c0-0.634-0.089-1.211-0.273-1.727c-0.183-0.521-0.453-0.97-0.815-1.341
	c-0.356-0.371-0.791-0.661-1.297-0.863c-0.506-0.203-1.09-0.306-1.756-0.306c-0.926,0-1.761,0.198-2.489,0.593
	c-0.733,0.393-1.355,0.914-1.862,1.565c-0.507,0.646-0.893,1.384-1.153,2.209s-0.391,1.674-0.391,2.549
	c0,1.44,0.376,2.569,1.134,3.386c0.752,0.818,1.854,1.228,3.307,1.228c1.31,0,2.376-0.328,3.193-0.979
	c0.818-0.651,1.412-1.596,1.778-2.836h-1.336c-0.256,0.804-0.69,1.455-1.312,1.954c-0.622,0.499-1.38,0.748-2.265,0.748
	c-0.538,0-1.006-0.087-1.411-0.263c-0.4-0.179-0.733-0.418-0.994-0.722s-0.454-0.668-0.584-1.095
	C334.265,119.587,334.2,119.127,334.2,118.632 M341.564,116.671h-7.116c0.111-0.506,0.287-0.994,0.526-1.457
	c0.241-0.465,0.54-0.878,0.899-1.24c0.36-0.357,0.767-0.646,1.223-0.863c0.458-0.22,0.965-0.329,1.51-0.329
	c0.931,0,1.661,0.275,2.192,0.825c0.533,0.55,0.798,1.288,0.798,2.219c0,0.143-0.005,0.28-0.015,0.41
	C341.571,116.372,341.564,116.517,341.564,116.671z M348.45,107.817h-1.329l-3.189,15.089h1.182l0.531-2.494h0.039
	c0.183,0.899,0.607,1.589,1.269,2.072c0.661,0.478,1.457,0.719,2.388,0.719c0.926,0,1.751-0.21,2.47-0.627
	c0.716-0.415,1.317-0.955,1.804-1.616c0.482-0.661,0.854-1.411,1.11-2.243c0.25-0.834,0.378-1.664,0.378-2.494
	c0-0.651-0.086-1.254-0.253-1.813c-0.168-0.555-0.427-1.033-0.77-1.436c-0.345-0.403-0.774-0.721-1.29-0.953
	c-0.512-0.232-1.122-0.35-1.826-0.35c-0.844,0-1.587,0.205-2.229,0.612c-0.64,0.408-1.15,0.951-1.529,1.625h-0.041L348.45,107.817
	 M349.179,122.089c-0.507,0-0.948-0.087-1.32-0.263c-0.372-0.176-0.683-0.413-0.926-0.707c-0.251-0.299-0.434-0.646-0.55-1.049
	c-0.123-0.403-0.181-0.837-0.181-1.3c0-0.623,0.096-1.281,0.284-1.978c0.191-0.699,0.471-1.344,0.847-1.937
	c0.369-0.591,0.835-1.085,1.392-1.479c0.557-0.396,1.199-0.594,1.932-0.594c1.1,0,1.893,0.309,2.388,0.932
	c0.492,0.622,0.738,1.438,0.738,2.453c0,0.664-0.099,1.349-0.297,2.051c-0.198,0.707-0.489,1.346-0.875,1.915
	c-0.386,0.571-0.869,1.042-1.438,1.408C350.604,121.908,349.938,122.089,349.179,122.089z M357.884,120.666l-0.48,2.224h1.773
	l0.506-2.224H357.884"/>
</svg>
